<svg width="980" height="454" viewBox="0 0 980 454" fill="none" xmlns="http://www.w3.org/2000/svg">
<path d="M683.531 169.327C731.531 200.927 784.531 185.161 805.031 173.327C825.431 158.927 850.531 124.661 860.531 109.327C836.531 102.927 827.864 77.994 826.531 66.3273C827.031 70.3273 827.331 75.5273 824.531 64.3273C821.731 53.1273 812.697 24.3273 808.531 11.3273C798.131 0.986316 804.197 0.351894 808.531 1.32731L840.531 30.3273C823.531 25.1606 799.731 17.4273 840.531 27.8273C881.331 38.2273 890.864 63.8273 890.531 75.3273C886.531 75.6606 880.931 75.5273 890.531 72.3273C900.131 69.1273 917.197 76.994 924.531 81.3273C963.331 81.3273 977.031 109.327 979.031 123.327C977.031 119.327 965.864 119.994 960.531 120.827C948.531 120.427 913.864 134.327 898.031 141.327C886.031 169.661 861.731 227.127 860.531 230.327C859.331 233.527 823.031 284.994 805.031 310.327C765.831 347.927 712.697 372.327 691.031 379.827C616.631 398.627 552.031 391.327 529.031 385.327C544.231 412.127 545.364 431.494 544.031 437.827C542.031 451.827 533.197 449.327 529.031 446.327C525.831 437.527 493.364 411.327 477.531 399.327C463.531 380.527 450.697 365.827 446.031 360.827L406.031 342.827L426.031 389.827C436.031 405.327 419.531 402.827 429.531 414.327C437.531 423.527 437.864 433.827 437.031 437.827C445.831 445.027 444.364 450.494 442.531 452.327C396.931 457.527 353.197 419.161 337.031 399.327C271.031 323.327 249.531 272.327 247.031 261.827C245.031 253.427 221.531 239.661 210.031 233.827C198.031 231.327 159.531 202.327 149.031 196.327C140.631 191.527 91.5306 152.994 68.0306 134.327C14.8306 110.327 5.19729 93.6606 7.03063 88.3273C-4.56938 68.7273 3.1973 60.8273 8.53063 59.3273C10.6973 62.994 13.4306 67.7273 7.03063 57.3273C0.630629 46.9273 17.6973 35.994 27.0306 31.8273C49.8306 0.227308 152.197 8.66064 200.531 16.8273C243.731 19.2273 290.197 36.1606 308.031 44.3273C353.531 44.3273 400.531 68.8273 406.531 73.8273C411.331 77.8273 450.531 87.1606 469.531 91.3273C522.531 104.827 507.031 116.827 529.031 117.327C546.631 117.727 560.031 120.827 564.531 122.327L628.031 148.827L677.531 133.327C700.331 130.127 684.531 165.327 683.531 169.327ZM683.531 169.327C635.531 137.727 663.531 158.827 683.531 173.327V169.327Z" stroke="black"/>
</svg>
